<?xml version="1.0" standalone="no"?>
<!DOCTYPE svg PUBLIC "-//W3C//DTD SVG 20010904//EN"
 "http://www.w3.org/TR/2001/REC-SVG-20010904/DTD/svg10.dtd">
<svg version="1.0" xmlns="http://www.w3.org/2000/svg"
 width="500.000000pt" height="500.000000pt" viewBox="0 0 500.000000 500.000000"
 preserveAspectRatio="xMidYMid meet">
<metadata>
Created by potrace 1.14, written by Peter Selinger 2001-2017
</metadata>
<g transform="translate(0.000000,500.000000) scale(0.100000,-0.100000)"
fill="#000000" stroke="none">
<path d="M2185 4914 c-522 -70 -1001 -304 -1374 -668 -210 -206 -359 -411
-487 -671 -168 -342 -244 -675 -244 -1070 0 -395 76 -728 244 -1070 128 -260
277 -465 487 -671 377 -368 856 -600 1382 -669 155 -20 469 -20 624 0 526 69
1005 301 1382 669 210 206 359 411 487 671 168 342 244 675 244 1070 0 395
-76 728 -244 1070 -128 260 -277 465 -487 671 -377 368 -856 600 -1382 669
-146 19 -491 19 -632 -1z"/>
</g>
</svg>
